<svg xmlns="http://www.w3.org/2000/svg" width="375" viewBox="0 0 375 375" height="375" version="1.0"><g fill="#FFDE59"><g><g><path d="M -18.328125 -48.140625 C -13.253906 -46.453125 -9.832031 -43.648438 -8.0625 -39.734375 C -6.300781 -35.828125 -6.335938 -31.125 -8.171875 -25.625 L -9.328125 -22.1875 L 5.71875 -17.171875 L 1.640625 -4.90625 L -43.71875 -20.03125 L -38.484375 -35.734375 C -36.578125 -41.460938 -33.894531 -45.347656 -30.4375 -47.390625 C -26.976562 -49.429688 -22.941406 -49.679688 -18.328125 -48.140625 Z M -19.3125 -25.515625 L -18.5625 -27.734375 C -17.945312 -29.578125 -17.976562 -31.210938 -18.65625 -32.640625 C -19.332031 -34.078125 -20.582031 -35.097656 -22.40625 -35.703125 C -25.46875 -36.722656 -27.5625 -35.539062 -28.6875 -32.15625 L -29.75 -29 Z M -19.3125 -25.515625" transform="translate(90.504 180.503)"/></g></g></g><g fill="#FFDE59"><g><g><path d="M 0.96875 -66.21875 L 20.578125 -45.15625 C 24.835938 -40.570312 26.835938 -35.8125 26.578125 -30.875 C 26.328125 -25.945312 23.765625 -21.210938 18.890625 -16.671875 C 14.117188 -12.234375 9.3125 -10.039062 4.46875 -10.09375 C -0.363281 -10.15625 -4.910156 -12.476562 -9.171875 -17.0625 L -28.984375 -38.34375 L -19.484375 -47.1875 L -0.359375 -26.640625 C 1.941406 -24.171875 4.070312 -22.8125 6.03125 -22.5625 C 8 -22.3125 9.882812 -23.019531 11.6875 -24.6875 C 13.625 -26.488281 14.507812 -28.347656 14.34375 -30.265625 C 14.1875 -32.191406 12.929688 -34.414062 10.578125 -36.9375 L -8.484375 -57.421875 Z M 0.96875 -66.21875" transform="translate(104.13 138.065)"/></g></g></g><g fill="#FFDE59"><g><g><path d="M 13.484375 -21.1875 L 17.578125 -4.265625 L 5.03125 -1.21875 L -6.21875 -47.6875 L 9 -51.375 C 21.625 -54.425781 29.046875 -51.375 31.265625 -42.21875 C 32.566406 -36.832031 30.945312 -32.035156 26.40625 -27.828125 L 44.859375 -10.859375 L 30.609375 -7.40625 L 16.671875 -21.953125 Z M 11.203125 -30.609375 L 13.546875 -31.171875 C 17.941406 -32.234375 19.671875 -34.707031 18.734375 -38.59375 C 17.953125 -41.789062 15.410156 -42.867188 11.109375 -41.828125 L 8.625 -41.234375 Z M 11.203125 -30.609375" transform="translate(143.17 103.262)"/></g></g></g><g fill="#FFDE59"><g><g><path d="M 50.703125 -11.921875 C 48.585938 -4.222656 44.84375 1.125 39.46875 4.125 C 34.101562 7.125 27.582031 7.570312 19.90625 5.46875 L 4.984375 1.375 L 17.640625 -44.734375 L 33.59375 -40.359375 C 41 -38.328125 46.191406 -34.867188 49.171875 -29.984375 C 52.160156 -25.097656 52.671875 -19.078125 50.703125 -11.921875 Z M 37.671875 -15.03125 C 38.828125 -19.257812 38.847656 -22.625 37.734375 -25.125 C 36.628906 -27.625 34.375 -29.34375 30.96875 -30.28125 L 27.359375 -31.265625 L 20.265625 -5.421875 L 23.03125 -4.671875 C 26.820312 -3.628906 29.894531 -3.960938 32.25 -5.671875 C 34.613281 -7.390625 36.421875 -10.507812 37.671875 -15.03125 Z M 37.671875 -15.03125" transform="translate(189.177 92.142)"/></g></g></g><g fill="#FFDE59"><g><g><path d="M 66.21875 -0.703125 L 45.65625 19.4375 C 41.195312 23.8125 36.5 25.929688 31.5625 25.796875 C 26.625 25.660156 21.820312 23.210938 17.15625 18.453125 C 12.59375 13.785156 10.28125 9.035156 10.21875 4.203125 C 10.15625 -0.628906 12.359375 -5.234375 16.828125 -9.609375 L 37.59375 -29.953125 L 46.671875 -20.671875 L 26.625 -1.03125 C 24.21875 1.320312 22.910156 3.484375 22.703125 5.453125 C 22.492188 7.429688 23.25 9.296875 24.96875 11.046875 C 26.820312 12.941406 28.703125 13.785156 30.609375 13.578125 C 32.523438 13.367188 34.71875 12.054688 37.1875 9.640625 L 57.171875 -9.9375 Z M 66.21875 -0.703125" transform="translate(238.016 105.771)"/></g></g></g><g fill="#FFDE59"><g><g><path d="M 9.875 32.078125 L 1.515625 4.9375 L 47.21875 -9.125 L 55.578125 18.015625 L 45.671875 21.0625 L 41.125 6.28125 L 33.921875 8.5 L 38.125 22.171875 L 28.234375 25.21875 L 24.03125 11.546875 L 15.390625 14.203125 L 19.9375 28.984375 Z M 9.875 32.078125" transform="translate(273.343 144.958)"/></g></g></g><g fill="#FFDE59"><g><g><path d="M 45.984375 4.65625 C 44.492188 1.96875 42.226562 0.484375 39.1875 0.203125 C 36.15625 -0.0664062 32.707031 0.875 28.84375 3.03125 C 20.800781 7.507812 18.484375 12.804688 21.890625 18.921875 C 22.921875 20.765625 24.171875 22.410156 25.640625 23.859375 C 27.117188 25.304688 28.710938 26.703125 30.421875 28.046875 L 20.890625 33.375 C 17.390625 30.738281 14.414062 27.21875 11.96875 22.8125 C 8.457031 16.519531 7.59375 10.671875 9.375 5.265625 C 11.164062 -0.128906 15.515625 -4.753906 22.421875 -8.609375 C 26.742188 -11.015625 30.992188 -12.316406 35.171875 -12.515625 C 39.359375 -12.710938 43.1875 -11.769531 46.65625 -9.6875 C 50.125 -7.613281 53.007812 -4.507812 55.3125 -0.375 C 57.820312 4.132812 59.242188 8.988281 59.578125 14.1875 L 48.78125 15.6875 C 48.632812 13.738281 48.378906 11.851562 48.015625 10.03125 C 47.648438 8.21875 46.972656 6.425781 45.984375 4.65625 Z M 45.984375 4.65625" transform="translate(50.91 231.953)"/></g></g></g><g fill="#FFDE59"><g><g><path d="M 4.046875 3.21875 L 33.828125 -34.1875 L 43.984375 -26.09375 L 14.203125 11.3125 Z M 4.046875 3.21875" transform="translate(88.611 286.397)"/></g></g></g><g fill="#FFDE59"><g><g><path d="M 22.140625 -11.84375 L 17.421875 4.90625 L 4.984375 1.40625 L 17.9375 -44.625 L 33 -40.390625 C 45.507812 -36.867188 50.488281 -30.570312 47.9375 -21.5 C 46.4375 -16.164062 42.675781 -12.769531 36.65625 -11.3125 L 44.421875 12.5 L 30.328125 8.53125 L 25.28125 -10.96875 Z M 24.765625 -21.1875 L 27.078125 -20.546875 C 31.429688 -19.316406 34.148438 -20.625 35.234375 -24.46875 C 36.117188 -27.632812 34.429688 -29.816406 30.171875 -31.015625 L 27.71875 -31.703125 Z M 24.765625 -21.1875" transform="translate(126.765 313.556)"/></g></g></g><g fill="#FFDE59"><g><g><path d="M 18.078125 -42.546875 C 15.066406 -41.910156 12.976562 -40.179688 11.8125 -37.359375 C 10.65625 -34.546875 10.53125 -30.972656 11.4375 -26.640625 C 13.332031 -17.628906 17.707031 -13.84375 24.5625 -15.28125 C 26.625 -15.71875 28.566406 -16.429688 30.390625 -17.421875 C 32.210938 -18.410156 34.019531 -19.515625 35.8125 -20.734375 L 38.0625 -10.046875 C 34.519531 -7.492188 30.285156 -5.703125 25.359375 -4.671875 C 18.296875 -3.179688 12.445312 -4.085938 7.8125 -7.390625 C 3.1875 -10.703125 0.0625 -16.226562 -1.5625 -23.96875 C -2.582031 -28.8125 -2.566406 -33.257812 -1.515625 -37.3125 C -0.460938 -41.375 1.566406 -44.75 4.578125 -47.4375 C 7.585938 -50.125 11.40625 -51.957031 16.03125 -52.9375 C 21.09375 -54 26.15625 -53.921875 31.21875 -52.703125 L 29.453125 -41.9375 C 27.546875 -42.375 25.664062 -42.6875 23.8125 -42.875 C 21.96875 -43.070312 20.054688 -42.960938 18.078125 -42.546875 Z M 18.078125 -42.546875" transform="translate(196.248 326.483)"/></g></g></g><g fill="#FFDE59"><g><g><path d="M 4.078125 -3.1875 L -25.34375 -40.875 L -15.15625 -48.828125 L 7.84375 -19.375 L 22.34375 -30.6875 L 28.765625 -22.453125 Z M 4.078125 -3.1875" transform="translate(261.322 306.494)"/></g></g></g><g fill="#FFDE59"><g><g><path d="M 15.515625 -29.765625 L 2.390625 -4.59375 L -40 -26.6875 L -26.875 -51.859375 L -17.703125 -47.078125 L -24.859375 -33.359375 L -18.171875 -29.875 L -11.546875 -42.5625 L -2.359375 -37.78125 L -8.984375 -25.09375 L -0.984375 -20.921875 L 6.171875 -34.640625 Z M 15.515625 -29.765625" transform="translate(307.422 263.683)"/></g></g></g></svg>